# xmcd
#
# Track frame offsets:
#	150
#	9949
#	19351
#	29206
#	38216
#	48784
#	59438
#	69282
#	81127
#	90290
#	98850
#	108827
#	118328
#	129742
#	138967
#	149280
#	161979
#	173384
#	184606
#	194630
#	203944
#	213412
#	223519
#	234076
#	248897
#	261703
#	273154
#	282956
#	293560
#	304076
#	314687
#
# Disc length: 4376 seconds
#
# Revision: 0
# Processed by: cddbd v1.5.2PL0 Copyright (c) Steve Scherf et al.
# Submitted via: audiograbber 1.83.01
#
DISCID=cb11161f
DTITLE=Various Artist - Takin' A Ride With Travis and Bob  And Jim and John
DYEAR=1900
DGENRE=Oldies
TTITLE0=Travis and Bob - Little Bitty Johnny
TTITLE1=Travis and Bob - Tell Him No
TTITLE2=Travis and Bob - Lover's Rendez-Vous
TTITLE3=Travis and Bob - Oh Yeah
TTITLE4=Travis and Bob - We're Too Young
TTITLE5=Travis and Bob - Give Your Love To Me
TTITLE6=Travis and Bob - Baby Stay Close To me
TTITLE7=Travis and Bob - Wake Up And Cry
TTITLE8=Travis and Bob - The Spider And The Fly
TTITLE9=Travis and Bob - What A Change
TTITLE10=Travis and Bob - Day Dreams
TTITLE11=Travis and Bob - That's How Long
TTITLE12=Travis and Bob - Teenage Vision
TTITLE13=Travis and Bob - Pocahontas
TTITLE14=John and Jim - My Dancin' Lady
TTITLE15=John and Jim - Before You Go
TTITLE16=John and Jim - After Dark
TTITLE17=John and Jim - Give Me Your Picture
TTITLE18=John and Jim - Bubble Bubble Gum
TTITLE19=John and Jim - My Foolish Fling
TTITLE20=John and Jim - Who Knows The Secret
TTITLE21=John and Jim - This Feeling' Bound To Love
TTITLE22=John and Jim - Tv Hop
TTITLE23=John and Jim - Jo-Ann
TTITLE24=John and Jim - The Skip Flip
TTITLE25=John and Jim - Jo-Ann's Sister
TTITLE26=John and Jim - Buttercup
TTITLE27=John and Jim - Heart Of Gold
TTITLE28=John and Jim - I Want A Girl
TTITLE29=John and Jim - Together Forever
TTITLE30=John and Jim - One Mail A Day
EXTD=
EXTT0=
EXTT1=
EXTT2=
EXTT3=
EXTT4=
EXTT5=
EXTT6=
EXTT7=
EXTT8=
EXTT9=
EXTT10=
EXTT11=
EXTT12=
EXTT13=
EXTT14=
EXTT15=
EXTT16=
EXTT17=
EXTT18=
EXTT19=
EXTT20=
EXTT21=
EXTT22=
EXTT23=
EXTT24=
EXTT25=
EXTT26=
EXTT27=
EXTT28=
EXTT29=
EXTT30=
PLAYORDER=
